<svg xmlns="http://www.w3.org/2000/svg" viewBox="0 0 64 64">
  <defs>
    <linearGradient id="g" x1="0" y1="0" x2="1" y2="1">
      <stop offset="0%" stop-color="#1d4ed8"/>
      <stop offset="100%" stop-color="#0f766e"/>
    </linearGradient>
  </defs>
  <rect width="64" height="64" rx="12" fill="url(#g)"/>
  <path d="M16 20c0-2.2 1.8-4 4-4h22a6 6 0 0 1 6 6v24a2 2 0 0 1-2 2H24a8 8 0 0 0-8 8V20z" fill="#ffffff" opacity="0.95"/>
  <path d="M24 20h18a2 2 0 0 1 2 2v20H24a8 8 0 0 0-6 2.7V26a6 6 0 0 1 6-6z" fill="#dbeafe"/>
  <circle cx="42" cy="22" r="5" fill="#f59e0b"/>
</svg>
